<svg width="600" height="600" viewBox="0 0 600 600" fill="none" xmlns="http://www.w3.org/2000/svg">
<path d="M306.718 37.4125V59.3946L317.742 60.5415C392.817 68.7608 461.24 108.137 502.104 166.629C506.856 173.51 511.037 179.436 511.227 179.818C511.607 180.201 520.35 175.613 530.994 169.687L550 158.792L540.307 144.647C506.666 95.5217 458.199 57.4831 401.75 35.6921C375.902 25.5612 353.284 20.4002 317.742 16.5773L306.718 15.4304V37.4125Z" fill="black"/>
<path d="M251.599 70.2903C201.422 78.1274 149.915 103.741 112.663 139.486C97.6475 153.822 71.0385 186.126 71.0385 189.949C71.0385 191.479 77.8808 196.066 94.0363 205.432L102.779 210.402L110.192 199.698C128.248 173.319 160.749 145.603 192.679 129.355C218.908 116.166 257.681 105.462 279.349 105.462H285.811V86.3468V67.2319L277.828 67.4231C273.267 67.6142 261.483 68.7611 251.599 70.2903Z" fill="black"/>
<path d="M306.718 186.891V300.816L317.932 294.317C386.925 255.131 500.584 188.229 500.584 186.891C500.584 183.068 481.577 158.983 467.322 144.647C439.573 116.74 407.642 96.4778 372.29 84.6265C354.234 78.5098 326.295 72.9665 314.131 72.9665H306.718V186.891ZM339.98 92.0813C341.88 95.1397 332.187 103.55 326.865 103.55C320.023 103.55 318.882 100.11 324.014 94.7574C328.386 90.1699 337.699 88.4495 339.98 92.0813ZM379.703 109.667C382.554 112.152 385.215 116.74 385.785 120.18C386.735 125.341 385.975 127.253 381.223 132.223C373.621 139.677 364.498 140.06 358.036 133.178C344.161 118.269 364.498 96.2866 379.703 109.667ZM421.707 132.223C423.608 135.281 419.426 141.207 413.344 143.691C402.321 148.279 397.569 141.589 406.692 134.325C412.014 130.12 419.806 128.973 421.707 132.223ZM365.068 158.028C366.588 162.233 361.077 165.865 347.202 169.688C334.468 173.128 328.956 172.364 329.906 167.203C330.286 164.909 334.658 162.424 342.83 159.557C357.846 154.587 363.547 154.205 365.068 158.028ZM464.471 182.495C464.471 186.7 456.109 193.39 450.787 193.39C446.035 193.39 445.275 192.626 445.845 188.994C446.796 181.73 464.471 175.422 464.471 182.495ZM357.655 198.551C363.738 202.374 369.439 212.314 369.439 219.195C369.439 231.62 356.895 245 345.111 245C331.427 245 320.023 233.531 320.023 219.769C320.023 199.698 340.93 188.038 357.655 198.551Z" fill="black"/>
<path d="M259.012 118.842C220.049 125.532 180.515 144.647 149.535 171.79C138.701 181.347 112.853 211.549 112.853 214.607C112.853 215.754 278.398 312.858 284.29 315.343C285.051 315.725 285.811 271.187 285.811 216.519V116.93L276.878 117.122C271.746 117.313 263.763 118.077 259.012 118.842ZM269.085 146.558C271.556 152.293 268.515 160.895 263.954 160.895C260.152 160.895 258.252 152.102 260.913 146.367C263.573 140.442 266.234 140.442 269.085 146.558ZM213.206 161.659C213.587 165.673 212.826 170.07 211.496 171.79C209.215 174.275 208.835 174.275 206.554 171.217C203.513 167.011 203.323 161.85 206.174 156.88C209.025 151.146 212.636 153.44 213.206 161.659ZM246.088 162.615C253.12 169.687 253.12 175.04 246.088 182.112C239.055 189.185 233.733 189.185 226.701 182.112C220.809 175.995 220.049 172.555 223.47 166.056C228.792 155.734 237.915 154.396 246.088 162.615ZM187.738 178.289C198.001 186.508 191.159 202.947 177.474 202.947C168.731 202.947 164.17 197.977 164.17 188.42C164.17 181.347 171.392 174.275 178.425 174.275C180.705 174.275 184.887 175.995 187.738 178.289ZM251.219 206.579C252.17 213.078 250.079 220.151 247.038 220.151C242.096 220.151 240.196 207.535 244.377 203.33C247.608 200.08 250.459 201.418 251.219 206.579ZM256.541 236.207C261.483 241.177 263.003 244.235 263.003 249.588C263.003 275.01 233.543 282.274 221.949 259.91C218.528 253.219 218.528 249.97 222.33 241.942C226.131 233.913 232.973 229.899 242.856 229.708C248.558 229.708 251.409 231.046 256.541 236.207Z" fill="black"/>
<path d="M58.6845 210.975C31.8855 270.996 26.3736 331.208 41.9589 391.229C46.9005 409.961 53.7428 428.503 60.7752 442.265L64.3864 449.147L78.2611 441.118C85.8637 436.531 92.896 432.134 94.0364 430.987C95.1768 429.841 93.2762 422.577 88.1444 409.77C65.3368 352.425 65.9069 291.831 90.2351 234.869L97.2675 218.048L93.2762 215.563C80.5419 207.726 65.7169 199.124 64.9566 199.124C64.3864 199.124 61.5355 204.476 58.6845 210.975Z" fill="black"/>
<path d="M498.683 209.829C490.89 214.607 483.858 219.195 482.908 219.96C482.147 220.724 484.428 228.179 488.039 236.59C512.748 293.743 511.988 362.174 486.329 418.372L479.867 432.326L496.212 442.074C505.145 447.235 512.748 451.441 512.938 451.058C515.599 448 526.052 424.106 530.614 410.344C540.877 379.187 543.158 364.086 543.348 326.238C543.348 289.155 541.067 273.481 531.564 244.044C526.813 229.708 514.838 200.845 513.508 201.227C513.128 201.227 506.476 205.241 498.683 209.829Z" fill="black"/>
<path d="M101.259 236.398C77.1207 289.92 76.5506 357.013 99.5483 409.006C104.3 419.519 106.581 422.577 108.861 421.813C110.382 421.239 145.924 400.786 187.928 376.51C229.742 352.043 267.565 330.061 272.126 327.576C276.688 325.091 280.109 322.798 279.729 322.415C277.258 320.313 110.002 223.974 108.671 223.974C107.721 223.974 104.49 229.517 101.259 236.398ZM131.859 256.469C136.611 261.248 136.801 266.026 132.049 266.026C126.918 266.026 117.604 257.616 119.315 254.94C121.406 251.499 127.678 252.264 131.859 256.469ZM140.412 284.186C143.453 287.053 145.164 291.067 145.164 294.699C145.164 301.962 137.751 309.991 130.909 309.991C120.455 309.991 112.663 294.699 119.125 286.671C125.397 278.642 133.95 277.495 140.412 284.186ZM208.645 308.844C221.759 314.387 226.701 328.15 220.049 340.766C217.198 346.309 207.695 352.043 201.042 352.043C195.341 352.043 185.837 346.309 182.606 340.766C176.144 329.679 181.276 314.196 193.25 309.035C200.852 305.594 201.042 305.594 208.645 308.844ZM125.017 342.677C128.628 345.544 129.959 348.412 129.959 353.19C129.959 367.144 115.134 372.879 105.82 362.365C100.118 356.058 100.309 349.176 106.201 343.442C111.902 337.707 118.365 337.325 125.017 342.677ZM152.576 341.339C158.278 344.397 171.773 358.542 171.773 361.601C171.773 365.806 164.17 363.13 155.427 355.866C146.494 348.412 142.883 343.059 144.593 340.001C145.734 338.09 146.494 338.281 152.576 341.339ZM118.175 391.42C123.496 395.243 123.686 401.742 118.555 401.742C113.803 401.742 104.49 392.949 106.201 390.273C107.911 387.406 113.233 387.979 118.175 391.42Z" fill="black"/>
<path d="M385.214 276.157C337.888 303.682 299.115 326.62 299.115 327.194C299.115 327.958 464.281 424.68 468.462 426.209C471.313 427.356 483.287 399.257 488.799 378.995C493.361 362.365 493.741 357.395 493.741 325.282C493.741 293.169 493.361 288.199 488.799 271.569C486.138 261.439 481.007 247.102 477.395 239.648L471.123 225.885L385.214 276.157ZM467.702 253.028C473.214 258.38 473.214 262.203 467.702 262.203C462.76 262.203 454.968 255.704 454.968 251.69C454.968 247.485 462.57 248.249 467.702 253.028ZM456.678 276.73C473.974 286.861 479.106 294.698 473.974 304.065C470.933 309.99 461.81 312.666 455.538 309.608C446.225 305.212 438.052 281.318 443.564 274.628C446.605 270.996 446.415 270.805 456.678 276.73ZM423.037 295.272C432.73 303.3 435.201 307.697 432.35 310.564C429.879 313.049 416.765 304.065 410.303 295.845C406.882 291.64 406.311 289.346 407.832 287.626C410.113 284.759 411.253 285.332 423.037 295.272ZM394.337 306.167C412.394 315.342 419.046 323.562 412.774 328.723C408.592 331.972 380.843 342.486 376.091 342.486C364.497 342.486 354.234 332.355 354.234 320.886C354.234 314.387 358.795 305.212 363.167 302.344C368.109 299.286 384.834 301.389 394.337 306.167ZM472.644 334.457C476.255 337.707 476.825 341.721 473.974 343.441C471.503 344.971 461.43 339.427 459.91 335.604C457.249 328.532 465.041 327.767 472.644 334.457ZM413.724 344.015C418.666 348.411 417.715 352.043 411.633 352.043C405.171 352.043 398.899 345.926 400.61 341.53C401.94 337.898 408.212 339.236 413.724 344.015ZM456.108 344.971C465.611 353.19 461.62 367.144 449.076 370.202C442.614 371.731 432.16 363.321 432.16 356.439C432.16 342.677 445.845 336.178 456.108 344.971ZM454.968 388.361C459.91 393.331 459.91 397.919 454.968 397.919C450.786 397.919 441.663 390.082 441.663 386.45C441.663 383.009 450.977 384.347 454.968 388.361Z" fill="black"/>
<path d="M263.954 342.295C255.591 347.265 217.958 369.247 180.325 391.038C142.693 413.02 111.522 431.179 111.142 431.561C110.192 432.326 122.926 449.911 133.19 462.336C151.056 483.362 185.457 507.256 213.967 518.343C230.502 524.842 254.26 530.767 270.986 532.679L282.01 533.826L282.39 433.473C282.77 367.335 282.39 332.928 281.059 333.12C280.109 333.12 272.316 337.325 263.954 342.295ZM258.252 383.392C270.796 388.744 274.787 406.712 265.474 417.034C255.021 428.503 239.435 427.547 231.073 415.122C221.379 400.786 230.883 383.009 249.319 380.907C250.649 380.907 254.641 381.862 258.252 383.392ZM218.718 414.549C219.479 416.46 218.338 418.945 215.677 421.239C206.554 428.503 198.001 423.342 206.744 415.696C212.826 410.535 217.008 409.961 218.718 414.549ZM160.369 429.267C160.369 432.517 151.436 439.972 147.634 439.972C142.883 439.972 142.313 433.855 146.874 430.032C152.196 425.827 160.369 425.444 160.369 429.267ZM263.003 447.618C263.003 450.294 255.781 454.308 244.377 458.131C236.394 460.616 233.733 460.807 231.643 459.086C229.362 457.175 229.172 456.028 230.883 454.117C235.444 448.573 263.003 443.03 263.003 447.618ZM197.241 470.364C199.142 473.231 196.481 477.628 191.539 479.922C184.697 482.98 181.276 482.598 181.276 478.393C181.276 471.893 194.39 465.394 197.241 470.364ZM236.584 479.922C239.625 482.98 242.096 487.376 242.096 489.67C242.096 494.831 232.213 504.962 227.271 504.962C225.181 504.962 221.379 503.242 218.528 500.948C214.727 497.89 213.587 495.405 213.587 489.67C213.587 483.936 214.727 481.451 218.528 478.393C225.371 473.04 229.932 473.423 236.584 479.922ZM270.606 509.55C270.606 513.373 263.193 518.343 257.872 518.343C252.74 518.343 252.17 515.284 256.731 510.314C260.533 506.109 270.606 505.536 270.606 509.55Z" fill="black"/>
<path d="M291.513 434.429V534.209L306.338 532.871C337.508 530.386 376.282 515.858 405.932 495.979C422.277 484.892 447.365 460.425 457.629 445.133C461.81 439.208 464.661 433.855 464.281 433.664C462.761 432.135 293.034 334.84 292.273 334.84C291.893 334.84 291.513 379.76 291.513 434.429ZM314.891 366.571C324.964 371.732 346.441 390.082 351.573 397.92C357.465 406.904 356.515 411.873 347.962 417.226C332.947 426.21 316.601 417.226 305.958 394.097C300.446 382.054 299.686 370.968 304.057 366.571C307.668 362.748 307.478 362.748 314.891 366.571ZM383.694 411.3C385.024 413.403 381.223 433.091 378.562 438.443C377.612 440.355 375.521 441.884 373.811 441.884C371.34 441.884 370.96 440.163 371.91 430.415C373.241 415.314 379.703 404.801 383.694 411.3ZM334.848 438.061C335.418 446.089 332.947 450.485 328.766 448.956C325.725 447.618 324.584 439.208 326.865 433.282C328.956 427.739 334.277 430.797 334.848 438.061ZM410.873 452.588C415.625 457.94 416.005 461.19 412.774 467.307C407.642 477.246 396.999 479.158 389.396 471.512C383.884 466.16 383.314 459.852 387.685 453.735C393.957 444.751 403.271 444.369 410.873 452.588ZM348.342 465.777C361.647 472.659 356.705 491.582 341.5 491.582C328.195 491.582 322.303 475.144 332.567 466.924C338.649 462.145 341.31 461.954 348.342 465.777ZM373.241 486.804C373.241 494.067 369.439 498.464 366.018 495.023C363.167 492.156 363.167 484.892 365.828 479.922C368.679 474.379 373.241 478.775 373.241 486.804ZM317.742 495.788C318.502 501.904 314.891 509.359 311.85 508.212C308.809 507.257 307.098 498.846 308.809 493.685C311.09 487.759 316.982 489.097 317.742 495.788Z" fill="black"/>
<path d="M82.8226 448L67.2373 457.367L75.22 469.218C87.194 486.613 119.885 519.681 137.371 532.297C168.161 554.661 208.075 572.247 242.476 578.364C260.913 581.613 280.869 582.951 281.63 580.849C281.82 580.084 282.01 571.865 282.01 562.499V545.295L273.077 544.148C228.602 538.605 195.34 526.18 162.269 502.86C144.974 490.818 122.546 468.453 110.192 450.868C105.25 443.795 100.499 438.061 99.9283 438.252C99.1681 438.252 91.5655 442.648 82.8226 448Z" fill="black"/>
<path d="M461.62 457.749C425.508 504.962 371.53 535.355 309.189 543.383L291.513 545.677V564.41V583.333H298.735C302.537 583.333 313.941 581.995 323.824 580.466C392.817 569.953 454.018 532.87 496.022 476.29L507.996 460.042L500.013 455.073C495.642 452.396 488.229 448 483.478 445.324L474.925 440.354L461.62 457.749Z" fill="black"/>
</svg>
