<?xml version="1.0" standalone="no"?>
<!DOCTYPE svg PUBLIC "-//W3C//DTD SVG 20010904//EN"
 "http://www.w3.org/TR/2001/REC-SVG-20010904/DTD/svg10.dtd">
<svg version="1.0" xmlns="http://www.w3.org/2000/svg"
 width="272.000000pt" height="299.000000pt" viewBox="0 0 272.000000 299.000000"
 preserveAspectRatio="xMidYMid meet">

<g transform="translate(0.000000,299.000000) scale(0.100000,-0.100000)"
fill="#000000" stroke="none">
<path d="M1440 2866 l0 -115 58 -6 c395 -43 755 -249 970 -555 25 -36 47 -67
48 -69 2 -2 48 22 104 53 l100 57 -51 74 c-177 257 -432 456 -729 570 -136 53
-255 80 -442 100 l-58 6 0 -115z"/>
<path d="M1150 2694 c-264 -41 -535 -175 -731 -362 -79 -75 -219 -244 -219
-264 0 -8 36 -32 121 -81 l46 -26 39 56 c95 138 266 283 434 368 138 69 342
125 456 125 l34 0 0 100 0 100 -42 -1 c-24 -1 -86 -7 -138 -15z"/>
<path d="M1440 2084 l0 -596 59 34 c363 205 961 555 961 562 0 20 -100 146
-175 221 -146 146 -314 252 -500 314 -95 32 -242 61 -306 61 l-39 0 0 -596z
m175 496 c10 -16 -41 -60 -69 -60 -36 0 -42 18 -15 46 23 24 72 33 84 14z
m209 -92 c15 -13 29 -37 32 -55 5 -27 1 -37 -24 -63 -40 -39 -88 -41 -122 -5
-73 78 34 193 114 123z m221 -118 c10 -16 -12 -47 -44 -60 -58 -24 -83 11 -35
49 28 22 69 28 79 11z m-298 -135 c8 -22 -21 -41 -94 -61 -67 -18 -96 -14 -91
13 2 12 25 25 68 40 79 26 109 28 117 8z m523 -128 c0 -22 -44 -57 -72 -57
-25 0 -29 4 -26 23 5 38 98 71 98 34z m-562 -84 c32 -20 62 -72 62 -108 0 -65
-66 -135 -128 -135 -72 0 -132 60 -132 132 0 105 110 166 198 111z"/>
<path d="M1189 2440 c-205 -35 -413 -135 -576 -277 -57 -50 -193 -208 -193
-224 0 -6 871 -514 902 -527 4 -2 8 231 8 517 l0 521 -47 -1 c-27 -1 -69 -5
-94 -9z m53 -145 c13 -30 -3 -75 -27 -75 -20 0 -30 46 -16 76 14 31 28 31 43
-1z m-294 -79 c2 -21 -2 -44 -9 -53 -12 -13 -14 -13 -26 3 -16 22 -17 49 -2
75 15 30 34 18 37 -25z m173 -5 c37 -37 37 -65 0 -102 -37 -37 -65 -37 -102 0
-31 32 -35 50 -17 84 28 54 76 61 119 18z m-307 -82 c54 -43 18 -129 -54 -129
-46 0 -70 26 -70 76 0 37 38 74 75 74 12 0 34 -9 49 -21z m334 -148 c5 -34 -6
-71 -22 -71 -26 0 -36 66 -14 88 17 17 32 10 36 -17z m28 -155 c26 -26 34 -42
34 -70 0 -133 -155 -171 -216 -54 -18 35 -18 52 2 94 20 42 56 63 108 64 30 0
45 -7 72 -34z"/>
<path d="M135 1958 c-141 -314 -170 -629 -88 -943 26 -98 62 -195 99 -267 l19
-36 73 42 c40 24 77 47 83 53 6 6 -4 44 -31 111 -120 300 -117 617 11 915 l37
88 -21 13 c-67 41 -145 86 -149 86 -3 0 -18 -28 -33 -62z"/>
<path d="M2450 1964 c-41 -25 -78 -49 -83 -53 -4 -4 8 -43 27 -87 130 -299
126 -657 -9 -951 l-34 -73 86 -51 c47 -27 87 -49 88 -47 14 16 69 141 93 213
54 163 66 242 67 440 0 194 -12 276 -62 430 -25 75 -88 226 -95 224 -2 0 -37
-21 -78 -45z"/>
<path d="M359 1825 c-127 -280 -130 -631 -9 -903 25 -55 37 -71 49 -67 8 3
195 110 416 237 220 128 419 243 443 256 24 13 42 25 40 27 -13 11 -893 515
-900 515 -5 0 -22 -29 -39 -65z m161 -105 c25 -25 26 -50 1 -50 -27 0 -76 44
-67 58 11 18 44 14 66 -8z m45 -145 c16 -15 25 -36 25 -55 0 -38 -39 -80 -75
-80 -55 0 -96 80 -62 122 33 42 78 48 112 13z m359 -129 c69 -29 95 -101 60
-167 -15 -29 -65 -59 -100 -59 -30 0 -80 30 -97 59 -34 58 -7 139 56 166 40
18 41 18 81 1z m-440 -177 c19 -15 26 -30 26 -55 0 -73 -78 -103 -127 -48 -30
33 -29 69 2 99 30 30 64 32 99 4z m145 7 c30 -16 101 -90 101 -106 0 -22 -40
-8 -86 30 -47 39 -66 67 -57 83 6 10 10 9 42 -7z m-181 -262 c28 -20 29 -54 2
-54 -25 0 -74 46 -65 60 9 15 37 12 63 -6z"/>
<path d="M1853 1617 c-249 -144 -453 -264 -453 -267 0 -4 869 -510 891 -518
15 -6 78 141 107 247 24 87 26 113 26 281 0 168 -2 194 -26 281 -14 53 -41
128 -60 167 l-33 72 -452 -263z m434 121 c29 -28 29 -48 0 -48 -26 0 -67 34
-67 55 0 22 40 18 67 -7z m-58 -124 c91 -53 118 -94 91 -143 -16 -31 -64 -45
-97 -29 -49 23 -92 148 -63 183 16 19 15 20 69 -11z m-177 -97 c51 -42 64 -65
49 -80 -13 -13 -82 34 -116 77 -18 22 -21 34 -13 43 12 15 18 12 80 -40z
m-151 -57 c95 -48 130 -91 97 -118 -22 -17 -168 -72 -193 -72 -61 0 -115 53
-115 113 0 34 24 82 47 97 26 16 114 5 164 -20z m412 -148 c19 -17 22 -38 7
-47 -13 -8 -66 21 -74 41 -14 37 27 41 67 6z m-310 -50 c26 -23 21 -42 -11
-42 -34 0 -67 32 -58 55 7 19 40 12 69 -13z m223 -5 c50 -43 29 -116 -37 -132
-34 -8 -89 36 -89 72 0 72 72 106 126 60z m-6 -227 c26 -26 26 -50 0 -50 -22
0 -70 41 -70 60 0 18 49 11 70 -10z"/>
<path d="M1215 1271 c-44 -26 -242 -141 -440 -255 -198 -115 -362 -210 -364
-212 -5 -4 62 -96 116 -161 94 -110 275 -235 425 -293 87 -34 212 -65 300 -75
l58 -6 2 525 c2 346 0 526 -7 525 -5 0 -46 -22 -90 -48z m-30 -215 c66 -28 87
-122 38 -176 -55 -60 -137 -55 -181 10 -51 75 -1 168 96 179 7 0 28 -5 47 -13z
m-208 -163 c4 -10 -2 -23 -16 -35 -48 -38 -93 -11 -47 29 32 27 54 30 63 6z
m-307 -77 c0 -17 -47 -56 -67 -56 -25 0 -28 32 -4 52 28 22 71 24 71 4z m540
-96 c0 -14 -38 -35 -98 -55 -42 -13 -56 -14 -67 -5 -12 10 -13 16 -4 26 24 29
169 58 169 34z m-346 -119 c10 -15 -4 -38 -30 -50 -36 -16 -54 -14 -54 8 0 34
69 68 84 42z m207 -50 c16 -16 29 -39 29 -51 0 -27 -52 -80 -78 -80 -11 0 -31
9 -46 21 -20 16 -26 29 -26 59 0 30 6 43 26 59 36 28 60 26 95 -8z m179 -155
c0 -20 -39 -46 -67 -46 -27 0 -30 16 -6 42 20 22 73 25 73 4z"/>
<path d="M1360 789 l0 -522 78 7 c164 13 368 89 524 193 86 58 218 186 272
266 22 31 37 59 35 60 -8 8 -901 517 -905 517 -2 0 -4 -235 -4 -521z m123 355
c53 -27 166 -123 193 -164 31 -47 26 -73 -19 -101 -79 -47 -165 0 -221 121
-29 63 -33 121 -10 144 19 20 18 20 57 0z m362 -234 c7 -11 -13 -114 -27 -142
-5 -10 -16 -18 -25 -18 -13 0 -15 9 -10 60 7 79 41 134 62 100z m-257 -140 c3
-42 -10 -65 -32 -57 -16 7 -22 51 -10 82 11 29 39 13 42 -25z m400 -76 c25
-28 27 -45 10 -77 -27 -52 -83 -62 -123 -22 -29 28 -32 61 -9 93 33 47 82 49
122 6z m-329 -69 c70 -36 44 -135 -36 -135 -70 0 -101 86 -47 129 32 25 46 26
83 6z m131 -110 c0 -38 -20 -61 -38 -43 -15 15 -15 53 -1 79 15 29 39 6 39
-36z m-292 -47 c4 -32 -15 -71 -31 -65 -16 5 -25 49 -16 76 12 31 43 24 47
-11z"/>
<path d="M262 718 l-82 -49 42 -62 c63 -91 235 -264 327 -330 162 -117 372
-209 553 -241 97 -17 202 -24 206 -13 1 4 2 47 2 96 l0 90 -47 6 c-234 29
-409 94 -583 216 -91 63 -209 180 -274 272 -26 37 -51 67 -54 66 -4 0 -44 -23
-90 -51z"/>
<path d="M2255 667 c-190 -247 -474 -406 -802 -448 l-93 -12 0 -98 0 -99 38 0
c20 0 80 7 132 15 363 55 685 249 906 545 l63 85 -42 26 c-23 14 -62 37 -87
51 l-45 26 -70 -91z"/>
</g>
</svg>
